<svg width="133" height="25" fill="none" xmlns="http://www.w3.org/2000/svg"><path d="M16.87.693a.651.651 0 01.476.152.686.686 0 01.239.448V23.45a.685.685 0 01-.249.427.65.65 0 01-.465.14h-3.6a.64.64 0 01-.446-.149.673.673 0 01-.234-.418v-8.657H4.996v8.663a.685.685 0 01-.248.427.65.65 0 01-.466.14H.681a.64.64 0 01-.447-.149.673.673 0 01-.234-.418V1.302a.676.676 0 01.219-.45A.641.641 0 01.68.686h3.598a.651.651 0 01.476.151.686.686 0 01.239.449V9.88H12.6V1.3a.675.675 0 01.224-.44.64.64 0 01.457-.16l3.59-.008zm10.282 4.773V9.93h8.303a.608.608 0 01.445.163c.12.112.194.27.202.437v3.6a.64.64 0 01-.213.416.608.608 0 01-.434.151h-8.303v4.464h10.106a.651.651 0 01.475.152.686.686 0 01.239.448v3.696a.685.685 0 01-.249.428.651.651 0 01-.465.14h-14.39a.618.618 0 01-.453-.143.651.651 0 01-.229-.425V1.301A.662.662 0 0122.4.844a.626.626 0 01.468-.16h14.115a.64.64 0 01.456.16.675.675 0 01.224.44v3.564a.675.675 0 01-.224.44.64.64 0 01-.456.16l-9.83.018zm26.341 13.692a.651.651 0 01.475.151.686.686 0 01.24.449v3.696a.685.685 0 01-.25.428.65.65 0 01-.465.139H41.882a.64.64 0 01-.447-.148.673.673 0 01-.234-.419V1.302a.675.675 0 01.224-.44.64.64 0 01.457-.16h3.632a.64.64 0 01.457.16.675.675 0 01.224.44v17.859l7.298-.003zm16.251 0a.651.651 0 01.475.151.686.686 0 01.24.449v3.696a.685.685 0 01-.25.428.65.65 0 01-.465.139H58.133a.64.64 0 01-.447-.148.674.674 0 01-.234-.419V1.302a.676.676 0 01.224-.44.64.64 0 01.457-.16h3.632a.64.64 0 01.457.16.675.675 0 01.224.44v17.859l7.298-.003zm3.31-9.96a9.131 9.131 0 011.348-5.036A8.783 8.783 0 0178.26.756a8.504 8.504 0 015.05-.614 8.636 8.636 0 014.524 2.386A9.02 9.02 0 0190.29 7.1a9.175 9.175 0 01-.448 5.203 8.907 8.907 0 01-3.2 4.06 8.553 8.553 0 01-4.861 1.534 8.55 8.55 0 01-6.098-2.515 9.018 9.018 0 01-2.629-6.185zm16.466 14.26a.685.685 0 01-.249.428.651.651 0 01-.465.14H74.582a.619.619 0 01-.452-.142.651.651 0 01-.229-.425v-3.666a.663.663 0 01.218-.447.625.625 0 01.463-.154h14.202a.651.651 0 01.475.152.686.686 0 01.24.448l.021 3.666zM78.034 9.199c0 .76.22 1.505.632 2.137a3.769 3.769 0 001.681 1.418 3.655 3.655 0 002.165.219 3.717 3.717 0 001.918-1.053 3.88 3.88 0 001.025-1.97c.145-.747.07-1.52-.213-2.223A3.827 3.827 0 0083.862 6a3.661 3.661 0 00-3.515-.356 3.742 3.742 0 00-1.216.834 3.855 3.855 0 00-.813 1.248 3.937 3.937 0 00-.285 1.473h.001z" fill="#FFF"/><path d="M97.222 24.021c-.584 0-.809-.4-.648-.801 2.823-7.396 5.807-15.424 8.63-22.822a.72.72 0 011.266 0l8.597 22.822a.591.591 0 01-.064.576.563.563 0 01-.52.225h-17.26zm8.631-12.33l-2.79 7.968h5.594l-2.804-7.968zm17.713 3.099h-1.661v8.663a.684.684 0 01-.248.427.652.652 0 01-.466.14h-3.536a.61.61 0 01-.434-.151.643.643 0 01-.213-.416V1.532a.606.606 0 01.413-.54.583.583 0 01.234-.027h7.04c1.329 0 7.787.067 7.787 6.963a6.258 6.258 0 01-.964 3.782 6.002 6.002 0 01-2.992 2.417c.68 1.512 1.428 3.198 2.109 4.664l1.98 4.429a.578.578 0 01-.058.58.552.552 0 01-.526.221h-3.889a.848.848 0 01-.615-.378l-3.961-8.853zm-1.659-4.43h2.789c.809 0 2.889-.166 2.889-2.332s-2.303-2.365-2.889-2.365h-2.789v4.697z" fill="url(#paint0_linear_150_726)"/><defs><linearGradient id="paint0_linear_150_726" x1="96.523" y1="12.024" x2="132.667" y2="12.024" gradientUnits="userSpaceOnUse"><stop stop-color="#239656"/><stop offset=".99" stop-color="#A2DB35"/></linearGradient></defs></svg>